<svg width="30" height="30" viewBox="0 0 30 30" fill="none" xmlns="http://www.w3.org/2000/svg">
<path d="M12.1875 1.875C11.4416 1.875 10.7262 2.17132 10.1988 2.69876C9.67132 3.22621 9.375 3.94158 9.375 4.6875V5.625H2.8125C2.06658 5.625 1.35121 5.92132 0.823762 6.44876C0.296316 6.97621 0 7.69158 0 8.4375L0 11.0325L14.2762 14.8387C14.7505 14.965 15.2495 14.965 15.7237 14.8387L30 11.0325V8.4375C30 7.69158 29.7037 6.97621 29.1762 6.44876C28.6488 5.92132 27.9334 5.625 27.1875 5.625H20.625V4.6875C20.625 3.94158 20.3287 3.22621 19.8012 2.69876C19.2738 2.17132 18.5584 1.875 17.8125 1.875H12.1875ZM12.1875 3.75H17.8125C18.0611 3.75 18.2996 3.84877 18.4754 4.02459C18.6512 4.2004 18.75 4.43886 18.75 4.6875V5.625H11.25V4.6875C11.25 4.43886 11.3488 4.2004 11.5246 4.02459C11.7004 3.84877 11.9389 3.75 12.1875 3.75Z" fill="#084CAF"/>
<path d="M0 23.4375C0 24.1834 0.296316 24.8988 0.823762 25.4262C1.35121 25.9537 2.06658 26.25 2.8125 26.25H27.1875C27.9334 26.25 28.6488 25.9537 29.1762 25.4262C29.7037 24.8988 30 24.1834 30 23.4375V12.8438L15.2419 16.7756C15.0834 16.8179 14.9166 16.8179 14.7581 16.7756L0 12.8438V23.4375Z" fill="#084CAF"/>
</svg>
