<svg width="30" height="30" viewBox="0 0 30 30" fill="none" xmlns="http://www.w3.org/2000/svg">
<path d="M30 15C30 22.2487 23.2838 28.125 15 28.125C13.5143 28.1283 12.0346 27.9354 10.5994 27.5513C9.50437 28.1063 6.99 29.1713 2.76 29.865C2.385 29.925 2.1 29.535 2.24813 29.1862C2.91188 27.6187 3.51187 25.53 3.69187 23.625C1.395 21.3188 0 18.3 0 15C0 7.75125 6.71625 1.875 15 1.875C23.2838 1.875 30 7.75125 30 15ZM9.375 15C9.375 14.5027 9.17746 14.0258 8.82582 13.6742C8.47419 13.3225 7.99728 13.125 7.5 13.125C7.00272 13.125 6.52581 13.3225 6.17417 13.6742C5.82254 14.0258 5.625 14.5027 5.625 15C5.625 15.4973 5.82254 15.9742 6.17417 16.3258C6.52581 16.6775 7.00272 16.875 7.5 16.875C7.99728 16.875 8.47419 16.6775 8.82582 16.3258C9.17746 15.9742 9.375 15.4973 9.375 15ZM16.875 15C16.875 14.5027 16.6775 14.0258 16.3258 13.6742C15.9742 13.3225 15.4973 13.125 15 13.125C14.5027 13.125 14.0258 13.3225 13.6742 13.6742C13.3225 14.0258 13.125 14.5027 13.125 15C13.125 15.4973 13.3225 15.9742 13.6742 16.3258C14.0258 16.6775 14.5027 16.875 15 16.875C15.4973 16.875 15.9742 16.6775 16.3258 16.3258C16.6775 15.9742 16.875 15.4973 16.875 15ZM22.5 16.875C22.9973 16.875 23.4742 16.6775 23.8258 16.3258C24.1775 15.9742 24.375 15.4973 24.375 15C24.375 14.5027 24.1775 14.0258 23.8258 13.6742C23.4742 13.3225 22.9973 13.125 22.5 13.125C22.0027 13.125 21.5258 13.3225 21.1742 13.6742C20.8225 14.0258 20.625 14.5027 20.625 15C20.625 15.4973 20.8225 15.9742 21.1742 16.3258C21.5258 16.6775 22.0027 16.875 22.5 16.875Z" fill="white"/>
</svg>
