<svg width="100" height="100" viewBox="0 0 100 100" fill="none" xmlns="http://www.w3.org/2000/svg">
<path d="M25 15.625C25 14.7962 25.3292 14.0013 25.9153 13.4153C26.5013 12.8292 27.2962 12.5 28.125 12.5H34.375C35.2038 12.5 35.9987 12.8292 36.5847 13.4153C37.1708 14.0013 37.5 14.7962 37.5 15.625V21.875C37.5 22.7038 37.1708 23.4987 36.5847 24.0847C35.9987 24.6708 35.2038 25 34.375 25H28.125C27.2962 25 26.5013 24.6708 25.9153 24.0847C25.3292 23.4987 25 22.7038 25 21.875V15.625ZM43.75 15.625C43.75 14.7962 44.0792 14.0013 44.6653 13.4153C45.2513 12.8292 46.0462 12.5 46.875 12.5H53.125C53.9538 12.5 54.7487 12.8292 55.3347 13.4153C55.9208 14.0013 56.25 14.7962 56.25 15.625V21.875C56.25 22.7038 55.9208 23.4987 55.3347 24.0847C54.7487 24.6708 53.9538 25 53.125 25H46.875C46.0462 25 45.2513 24.6708 44.6653 24.0847C44.0792 23.4987 43.75 22.7038 43.75 21.875V15.625ZM65.625 12.5C64.7962 12.5 64.0013 12.8292 63.4153 13.4153C62.8292 14.0013 62.5 14.7962 62.5 15.625V21.875C62.5 22.7038 62.8292 23.4987 63.4153 24.0847C64.0013 24.6708 64.7962 25 65.625 25H71.875C72.7038 25 73.4987 24.6708 74.0847 24.0847C74.6708 23.4987 75 22.7038 75 21.875V15.625C75 14.7962 74.6708 14.0013 74.0847 13.4153C73.4987 12.8292 72.7038 12.5 71.875 12.5H65.625ZM25 34.375C25 33.5462 25.3292 32.7513 25.9153 32.1653C26.5013 31.5792 27.2962 31.25 28.125 31.25H34.375C35.2038 31.25 35.9987 31.5792 36.5847 32.1653C37.1708 32.7513 37.5 33.5462 37.5 34.375V40.625C37.5 41.4538 37.1708 42.2487 36.5847 42.8347C35.9987 43.4208 35.2038 43.75 34.375 43.75H28.125C27.2962 43.75 26.5013 43.4208 25.9153 42.8347C25.3292 42.2487 25 41.4538 25 40.625V34.375ZM46.875 31.25C46.0462 31.25 45.2513 31.5792 44.6653 32.1653C44.0792 32.7513 43.75 33.5462 43.75 34.375V40.625C43.75 41.4538 44.0792 42.2487 44.6653 42.8347C45.2513 43.4208 46.0462 43.75 46.875 43.75H53.125C53.9538 43.75 54.7487 43.4208 55.3347 42.8347C55.9208 42.2487 56.25 41.4538 56.25 40.625V34.375C56.25 33.5462 55.9208 32.7513 55.3347 32.1653C54.7487 31.5792 53.9538 31.25 53.125 31.25H46.875ZM62.5 34.375C62.5 33.5462 62.8292 32.7513 63.4153 32.1653C64.0013 31.5792 64.7962 31.25 65.625 31.25H71.875C72.7038 31.25 73.4987 31.5792 74.0847 32.1653C74.6708 32.7513 75 33.5462 75 34.375V40.625C75 41.4538 74.6708 42.2487 74.0847 42.8347C73.4987 43.4208 72.7038 43.75 71.875 43.75H65.625C64.7962 43.75 64.0013 43.4208 63.4153 42.8347C62.8292 42.2487 62.5 41.4538 62.5 40.625V34.375ZM28.125 50C27.2962 50 26.5013 50.3292 25.9153 50.9153C25.3292 51.5013 25 52.2962 25 53.125V59.375C25 60.2038 25.3292 60.9987 25.9153 61.5847C26.5013 62.1708 27.2962 62.5 28.125 62.5H34.375C35.2038 62.5 35.9987 62.1708 36.5847 61.5847C37.1708 60.9987 37.5 60.2038 37.5 59.375V53.125C37.5 52.2962 37.1708 51.5013 36.5847 50.9153C35.9987 50.3292 35.2038 50 34.375 50H28.125ZM43.75 53.125C43.75 52.2962 44.0792 51.5013 44.6653 50.9153C45.2513 50.3292 46.0462 50 46.875 50H53.125C53.9538 50 54.7487 50.3292 55.3347 50.9153C55.9208 51.5013 56.25 52.2962 56.25 53.125V59.375C56.25 60.2038 55.9208 60.9987 55.3347 61.5847C54.7487 62.1708 53.9538 62.5 53.125 62.5H46.875C46.0462 62.5 45.2513 62.1708 44.6653 61.5847C44.0792 60.9987 43.75 60.2038 43.75 59.375V53.125ZM65.625 50C64.7962 50 64.0013 50.3292 63.4153 50.9153C62.8292 51.5013 62.5 52.2962 62.5 53.125V59.375C62.5 60.2038 62.8292 60.9987 63.4153 61.5847C64.0013 62.1708 64.7962 62.5 65.625 62.5H71.875C72.7038 62.5 73.4987 62.1708 74.0847 61.5847C74.6708 60.9987 75 60.2038 75 59.375V53.125C75 52.2962 74.6708 51.5013 74.0847 50.9153C73.4987 50.3292 72.7038 50 71.875 50H65.625Z" fill="black"/>
<path d="M12.5 6.25C12.5 4.5924 13.1585 3.00269 14.3306 1.83058C15.5027 0.65848 17.0924 0 18.75 0L81.25 0C82.9076 0 84.4973 0.65848 85.6694 1.83058C86.8415 3.00269 87.5 4.5924 87.5 6.25V93.75C87.5 95.4076 86.8415 96.9973 85.6694 98.1694C84.4973 99.3415 82.9076 100 81.25 100H18.75C17.0924 100 15.5027 99.3415 14.3306 98.1694C13.1585 96.9973 12.5 95.4076 12.5 93.75V6.25ZM81.25 6.25H18.75V93.75H37.5V78.125C37.5 77.2962 37.8292 76.5013 38.4153 75.9153C39.0013 75.3292 39.7962 75 40.625 75H59.375C60.2038 75 60.9987 75.3292 61.5847 75.9153C62.1708 76.5013 62.5 77.2962 62.5 78.125V93.75H81.25V6.25Z" fill="black"/>
</svg>
