<svg width="40" height="40" viewBox="0 0 40 40" fill="none" xmlns="http://www.w3.org/2000/svg">
<path fill-rule="evenodd" clip-rule="evenodd" d="M15 2.5H30V20C30 20.2212 29.9414 20.4384 29.8301 20.6295C29.7188 20.8206 29.5587 20.9787 29.3663 21.0878C29.1739 21.1968 28.956 21.2529 28.7348 21.2502C28.5137 21.2475 28.2972 21.1862 28.1075 21.0725L22.5 17.7075L16.8925 21.075C16.7026 21.1888 16.4859 21.2501 16.2645 21.2527C16.0432 21.2553 15.8251 21.199 15.6326 21.0897C15.4401 20.9803 15.2801 20.8218 15.169 20.6304C15.0578 20.4389 14.9995 20.2214 15 20V2.5Z" fill="#084CAF"/>
<path d="M7.5 0H32.5C33.8261 0 35.0979 0.526784 36.0355 1.46447C36.9732 2.40215 37.5 3.67392 37.5 5V35C37.5 36.3261 36.9732 37.5979 36.0355 38.5355C35.0979 39.4732 33.8261 40 32.5 40H7.5C6.17392 40 4.90215 39.4732 3.96447 38.5355C3.02678 37.5979 2.5 36.3261 2.5 35V32.5H5V35C5 35.663 5.26339 36.2989 5.73223 36.7678C6.20107 37.2366 6.83696 37.5 7.5 37.5H32.5C33.163 37.5 33.7989 37.2366 34.2678 36.7678C34.7366 36.2989 35 35.663 35 35V5C35 4.33696 34.7366 3.70107 34.2678 3.23223C33.7989 2.76339 33.163 2.5 32.5 2.5H7.5C6.83696 2.5 6.20107 2.76339 5.73223 3.23223C5.26339 3.70107 5 4.33696 5 5V7.5H2.5V5C2.5 3.67392 3.02678 2.40215 3.96447 1.46447C4.90215 0.526784 6.17392 0 7.5 0Z" fill="#084CAF"/>
<path d="M2.5 12.5V11.25C2.5 10.9185 2.6317 10.6005 2.86612 10.3661C3.10054 10.1317 3.41848 10 3.75 10C4.08152 10 4.39946 10.1317 4.63388 10.3661C4.8683 10.6005 5 10.9185 5 11.25V12.5H6.25C6.58152 12.5 6.89946 12.6317 7.13388 12.8661C7.3683 13.1005 7.5 13.4185 7.5 13.75C7.5 14.0815 7.3683 14.3995 7.13388 14.6339C6.89946 14.8683 6.58152 15 6.25 15H1.25C0.918479 15 0.600537 14.8683 0.366117 14.6339C0.131696 14.3995 0 14.0815 0 13.75C0 13.4185 0.131696 13.1005 0.366117 12.8661C0.600537 12.6317 0.918479 12.5 1.25 12.5H2.5ZM2.5 20V18.75C2.5 18.4185 2.6317 18.1005 2.86612 17.8661C3.10054 17.6317 3.41848 17.5 3.75 17.5C4.08152 17.5 4.39946 17.6317 4.63388 17.8661C4.8683 18.1005 5 18.4185 5 18.75V20H6.25C6.58152 20 6.89946 20.1317 7.13388 20.3661C7.3683 20.6005 7.5 20.9185 7.5 21.25C7.5 21.5815 7.3683 21.8995 7.13388 22.1339C6.89946 22.3683 6.58152 22.5 6.25 22.5H1.25C0.918479 22.5 0.600537 22.3683 0.366117 22.1339C0.131696 21.8995 0 21.5815 0 21.25C0 20.9185 0.131696 20.6005 0.366117 20.3661C0.600537 20.1317 0.918479 20 1.25 20H2.5ZM2.5 27.5V26.25C2.5 25.9185 2.6317 25.6005 2.86612 25.3661C3.10054 25.1317 3.41848 25 3.75 25C4.08152 25 4.39946 25.1317 4.63388 25.3661C4.8683 25.6005 5 25.9185 5 26.25V27.5H6.25C6.58152 27.5 6.89946 27.6317 7.13388 27.8661C7.3683 28.1005 7.5 28.4185 7.5 28.75C7.5 29.0815 7.3683 29.3995 7.13388 29.6339C6.89946 29.8683 6.58152 30 6.25 30H1.25C0.918479 30 0.600537 29.8683 0.366117 29.6339C0.131696 29.3995 0 29.0815 0 28.75C0 28.4185 0.131696 28.1005 0.366117 27.8661C0.600537 27.6317 0.918479 27.5 1.25 27.5H2.5Z" fill="#084CAF"/>
</svg>
