<svg width="40" height="40" viewBox="0 0 40 40" fill="none" xmlns="http://www.w3.org/2000/svg">
<g clip-path="url(#clip0_31_256)">
<path fill-rule="evenodd" clip-rule="evenodd" d="M4.71246 1.2775C5.14989 0.840723 5.67516 0.501897 6.25345 0.283476C6.83174 0.0650552 7.44984 -0.0279723 8.0668 0.0105582C8.68377 0.0490888 9.28549 0.218297 9.83211 0.506971C10.3787 0.795645 10.8578 1.19719 11.2375 1.685L15.725 7.45C16.5475 8.5075 16.8375 9.885 16.5125 11.185L15.145 16.66C15.0747 16.9436 15.0788 17.2405 15.1568 17.5221C15.2347 17.8036 15.3839 18.0604 15.59 18.2675L21.7325 24.41C21.9398 24.6165 22.197 24.7659 22.479 24.8439C22.7611 24.9218 23.0585 24.9257 23.3425 24.855L28.815 23.4875C29.4566 23.328 30.126 23.316 30.7729 23.4524C31.4198 23.5888 32.0274 23.8701 32.55 24.275L38.315 28.76C40.3875 30.3725 40.5775 33.435 38.7225 35.2875L36.1375 37.8725C34.2875 39.7225 31.5225 40.535 28.945 39.6275C22.3466 37.309 16.3563 33.5319 11.42 28.5775C6.46589 23.6419 2.68884 17.6524 0.369957 11.055C-0.535043 8.48 0.277457 5.7125 2.12746 3.8625L4.71246 1.2775Z" fill="#084CAF"/>
</g>
<defs>
<clipPath id="clip0_31_256">
<rect width="40" height="40" fill="white"/>
</clipPath>
</defs>
</svg>
