<svg width="100" height="100" viewBox="0 0 100 100" fill="none" xmlns="http://www.w3.org/2000/svg">
<g clip-path="url(#clip0_216_314)">
<path fill-rule="evenodd" clip-rule="evenodd" d="M98.8563 0.705144C99.2141 0.998493 99.5023 1.36764 99.7001 1.78592C99.8979 2.20421 100 2.6612 100 3.12389V90.6239C99.9996 91.3461 99.749 92.0458 99.291 92.6041C98.8329 93.1624 98.1957 93.5449 97.4875 93.6864L66.2375 99.9364C65.8332 100.017 65.4168 100.017 65.0125 99.9364L34.375 93.8114L3.7375 99.9364C3.2843 100.027 2.81666 100.016 2.36825 99.904C1.91985 99.7921 1.50185 99.5821 1.14437 99.2892C0.786892 98.9963 0.498834 98.6277 0.300949 98.2101C0.103064 97.7924 0.00027908 97.3361 0 96.8739L0 9.37389C0.000436138 8.65173 0.250976 7.95201 0.709021 7.39369C1.16707 6.83538 1.80434 6.45294 2.5125 6.31139L33.7625 0.0613944C34.1668 -0.0194227 34.5832 -0.0194227 34.9875 0.0613944L65.625 6.18639L96.2625 0.0613944C96.7155 -0.0297567 97.1832 -0.0192973 97.6317 0.0920194C98.0802 0.203336 98.4984 0.412739 98.8563 0.705144ZM62.5 11.9364L37.5 6.93639V88.0614L62.5 93.0614V11.9364ZM68.75 93.0614L93.75 88.0614V6.93639L68.75 11.9364V93.0614ZM31.25 88.0614V6.93639L6.25 11.9364V93.0614L31.25 88.0614Z" fill="black"/>
</g>
<defs>
<clipPath id="clip0_216_314">
<rect width="100" height="100" fill="white"/>
</clipPath>
</defs>
</svg>
