<svg width="100" height="100" viewBox="0 0 100 100" fill="none" xmlns="http://www.w3.org/2000/svg">
<g clip-path="url(#clip0_219_318)">
<path d="M70.3185 0.424953C70.9302 0.779568 71.4036 1.33114 71.6613 1.98956C71.919 2.64799 71.9458 3.37434 71.7373 4.04995L60.481 40.625H81.2498C81.8601 40.6247 82.4572 40.8032 82.9672 41.1384C83.4773 41.4736 83.8781 41.9508 84.12 42.5112C84.362 43.0715 84.4345 43.6904 84.3287 44.2915C84.223 44.8926 83.9435 45.4496 83.5248 45.8937L33.5248 99.0187C33.041 99.5332 32.3972 99.8686 31.6984 99.9703C30.9995 100.072 30.2868 99.934 29.6765 99.5788C29.0661 99.2236 28.594 98.6721 28.3372 98.0143C28.0804 97.3564 28.054 96.631 28.2623 95.9562L39.5185 59.375H18.7498C18.1394 59.3752 17.5424 59.1967 17.0323 58.8615C16.5223 58.5263 16.1215 58.0491 15.8796 57.4888C15.6376 56.9284 15.565 56.3095 15.6708 55.7084C15.7766 55.1073 16.0561 54.5503 16.4748 54.1062L66.4748 0.981203C66.958 0.467448 67.6008 0.132257 68.2986 0.0301317C68.9965 -0.0719937 69.7084 0.0649525 70.3185 0.418703V0.424953ZM25.981 53.125H43.7498C44.2388 53.1249 44.7211 53.2395 45.1577 53.4598C45.5944 53.68 45.9732 53.9997 46.2638 54.393C46.5544 54.7864 46.7487 55.2424 46.8309 55.7245C46.9131 56.2066 46.8811 56.7013 46.7373 57.1687L38.1873 84.9375L74.0123 46.875H56.2498C55.7607 46.875 55.2785 46.7604 54.8418 46.5401C54.4052 46.3199 54.0263 46.0002 53.7357 45.6069C53.4451 45.2135 53.2509 44.7575 53.1687 44.2754C53.0864 43.7933 53.1185 43.2986 53.2623 42.8312L61.8123 15.0625L25.981 53.125Z" fill="black"/>
</g>
<defs>
<clipPath id="clip0_219_318">
<rect width="100" height="100" fill="white"/>
</clipPath>
</defs>
</svg>
