<svg width="100" height="100" viewBox="0 0 100 100" fill="none" xmlns="http://www.w3.org/2000/svg">
<g clip-path="url(#clip0_205_305)">
<path d="M51.1625 6.9563C50.4163 6.65727 49.5837 6.65727 48.8375 6.9563L11.5375 21.8751L26.5625 27.8813L65.025 12.5001L51.1625 6.9563ZM73.4375 15.8688L34.975 31.2501L50 37.2563L88.4625 21.8751L73.4375 15.8688ZM93.75 26.4938L53.125 42.7438V92.2563L93.75 76.0063V26.4938ZM46.875 92.2626V42.7376L6.25 26.4938V76.0126L46.875 92.2626ZM46.5187 1.15005C48.7535 0.256298 51.2465 0.256298 53.4813 1.15005L98.0375 18.9751C98.6168 19.2072 99.1133 19.6075 99.4631 20.1244C99.8129 20.6412 99.9999 21.251 100 21.8751V76.0126C99.9992 77.2614 99.6243 78.4815 98.9236 79.5153C98.2229 80.549 97.2285 81.3492 96.0687 81.8126L51.1625 99.775C50.4163 100.074 49.5837 100.074 48.8375 99.775L3.9375 81.8126C2.77657 81.3502 1.78089 80.5505 1.07901 79.5166C0.377136 78.4827 0.00128956 77.2622 0 76.0126L0 21.8751C0.00014525 21.251 0.187148 20.6412 0.536919 20.1244C0.886689 19.6075 1.3832 19.2072 1.9625 18.9751L46.5187 1.15005Z" fill="black"/>
</g>
<defs>
<clipPath id="clip0_205_305">
<rect width="100" height="100" fill="white"/>
</clipPath>
</defs>
</svg>
