<svg width="100" height="100" viewBox="0 0 100 100" fill="none" xmlns="http://www.w3.org/2000/svg">
<path d="M58.1377 7.84996C57.3174 6.41606 56.1328 5.22438 54.7038 4.39556C53.2748 3.56675 51.6522 3.13025 50.0002 3.13025C48.3482 3.13025 46.7256 3.56675 45.2966 4.39556C43.8676 5.22438 42.683 6.41606 41.8627 7.84996L31.2127 26.475C30.8008 27.1952 30.6919 28.0496 30.9099 28.8501C31.1279 29.6506 31.655 30.3318 32.3752 30.7437C33.0954 31.1556 33.9498 31.2646 34.7503 31.0465C35.5509 30.8285 36.232 30.3014 36.644 29.5812L47.2877 10.95C47.5611 10.472 47.956 10.0748 48.4323 9.7985C48.9087 9.52222 49.4495 9.37672 50.0002 9.37672C50.5509 9.37672 51.0917 9.52222 51.5681 9.7985C52.0444 10.0748 52.4393 10.472 52.7127 10.95L68.5877 38.725L60.7377 36.6187C59.9371 36.4032 59.0836 36.5146 58.3651 36.9284C57.6466 37.3421 57.1219 38.0243 56.9064 38.825C56.691 39.6256 56.8023 40.479 57.2161 41.1975C57.6298 41.916 58.3121 42.4407 59.1127 42.6562L74.2065 46.7C74.6029 46.8068 75.0165 46.8345 75.4236 46.7815C75.8308 46.7284 76.2234 46.5956 76.5792 46.3907C76.935 46.1858 77.247 45.9129 77.4972 45.5873C77.7475 45.2618 77.9311 44.8902 78.0377 44.4937L82.0815 29.4C82.1877 29.0035 82.2149 28.5901 82.1614 28.1831C82.1079 27.7762 81.9748 27.3838 81.7696 27.0283C81.5644 26.6728 81.2913 26.3613 80.9657 26.1114C80.6401 25.8615 80.2685 25.6781 79.8721 25.5718C79.4756 25.4655 79.0622 25.4384 78.6552 25.4919C78.2483 25.5454 77.8559 25.6785 77.5004 25.8837C77.145 26.0889 76.8334 26.362 76.5835 26.6876C76.3336 27.0132 76.1502 27.3848 76.0439 27.7812L73.9627 35.5437L58.1377 7.84996ZM18.5814 48.5812L10.7377 50.6875C9.93708 50.903 9.08364 50.7916 8.36515 50.3778C7.64665 49.9641 7.12194 49.2818 6.90645 48.4812C6.69096 47.6806 6.80234 46.8272 7.2161 46.1087C7.62985 45.3902 8.31208 44.8655 9.1127 44.65L24.2127 40.6062C25.0125 40.3923 25.8644 40.5045 26.5816 40.9181C27.2987 41.3317 27.8224 42.0131 28.0377 42.8125L32.0814 57.9062C32.2961 58.7068 32.1839 59.5599 31.7696 60.2779C31.3553 60.9958 30.6727 61.5197 29.8721 61.7343C29.0715 61.949 28.2183 61.8368 27.5004 61.4225C26.7825 61.0081 26.2586 60.3256 26.0439 59.525L23.9627 51.7625L8.05645 79.6C7.78502 80.0751 7.64313 80.6133 7.64497 81.1605C7.64682 81.7078 7.79235 82.2449 8.06699 82.7183C8.34162 83.1916 8.73575 83.5845 9.20992 83.8577C9.6841 84.1309 10.2217 84.2748 10.7689 84.275H31.2502C32.079 84.275 32.8739 84.6042 33.4599 85.1903C34.046 85.7763 34.3752 86.5712 34.3752 87.4C34.3752 88.2288 34.046 89.0236 33.4599 89.6097C32.8739 90.1957 32.079 90.525 31.2502 90.525H10.7689C9.12722 90.5244 7.5144 90.0928 6.09187 89.2732C4.66934 88.4537 3.48697 87.2749 2.66306 85.8549C1.83914 84.4349 1.40257 82.8234 1.39703 81.1816C1.39148 79.5399 1.81715 77.9255 2.63145 76.5L18.5814 48.5812ZM86.6439 57.725C86.4459 57.3585 86.1765 57.0353 85.8517 56.7744C85.5269 56.5135 85.1532 56.3202 84.7526 56.2058C84.352 56.0914 83.9326 56.0583 83.519 56.1084C83.1054 56.1585 82.706 56.2908 82.3443 56.4975C81.9826 56.7042 81.6659 56.9811 81.4127 57.312C81.1596 57.6429 80.9752 58.0211 80.8704 58.4242C80.7655 58.8274 80.7423 59.2475 80.8022 59.6598C80.8621 60.0721 81.0038 60.4682 81.2189 60.825L91.9439 79.6C92.2154 80.0751 92.3573 80.6133 92.3554 81.1605C92.3536 81.7078 92.2081 82.2449 91.9334 82.7183C91.6588 83.1916 91.2646 83.5845 90.7905 83.8577C90.3163 84.1309 89.7787 84.2748 89.2315 84.275H54.4189L58.4627 80.2375C59.0487 79.6507 59.3775 78.8551 59.3769 78.0259C59.3764 77.1966 59.0464 76.4016 58.4596 75.8156C58.169 75.5255 57.8242 75.2954 57.4447 75.1385C57.0652 74.9817 56.6586 74.9011 56.248 74.9014C55.4187 74.9019 54.6237 75.2319 54.0377 75.8187L44.6627 85.1937C44.0769 85.7797 43.7477 86.5745 43.7477 87.4031C43.7477 88.2317 44.0769 89.0264 44.6627 89.6125L54.0377 98.9875C54.6237 99.5743 55.4187 99.9043 56.248 99.9048C56.6586 99.9051 57.0652 99.8245 57.4447 99.6677C57.8242 99.5108 58.169 99.2807 58.4596 98.9906C58.7501 98.7005 58.9807 98.3559 59.1381 97.9767C59.2955 97.5974 59.3766 97.1909 59.3769 96.7803C59.3772 96.3697 59.2966 95.9631 59.1398 95.5836C58.9829 95.2041 58.7528 94.8593 58.4627 94.5687L54.4189 90.525H89.2315C90.8732 90.5244 92.486 90.0928 93.9085 89.2732C95.3311 88.4537 96.5134 87.2749 97.3373 85.8549C98.1612 84.4349 98.5978 82.8234 98.6034 81.1816C98.6089 79.5399 98.1833 77.9255 97.3689 76.5L86.6439 57.725Z" fill="black"/>
</svg>
