<svg width="100" height="100" viewBox="0 0 100 100" fill="none" xmlns="http://www.w3.org/2000/svg">
<g clip-path="url(#clip0_212_312)">
<path d="M52.5999 1.39377C52.3145 0.965775 51.9279 0.614851 51.4743 0.372141C51.0208 0.129431 50.5143 0.00244141 49.9999 0.00244141C49.4855 0.00244141 48.979 0.129431 48.5255 0.372141C48.0719 0.614851 47.6853 0.965775 47.3999 1.39377L28.6499 29.5188C28.3367 29.9894 28.1571 30.5361 28.1301 31.1007C28.1031 31.6653 28.2297 32.2267 28.4965 32.725C28.7633 33.2234 29.1603 33.64 29.6452 33.9306C30.13 34.2211 30.6846 34.3747 31.2499 34.375H31.8624L19.2249 54.5938C18.9292 55.0668 18.7656 55.6104 18.751 56.168C18.7363 56.7256 18.8712 57.277 19.1416 57.7649C19.412 58.2528 19.8081 58.6594 20.2888 58.9426C20.7694 59.2257 21.3171 59.375 21.8749 59.375H23.0686L12.8311 79.85C12.5924 80.3264 12.4795 80.856 12.5031 81.3884C12.5267 81.9208 12.686 82.4383 12.966 82.8917C13.2459 83.3452 13.6372 83.7195 14.1026 83.9791C14.568 84.2387 15.092 84.375 15.6249 84.375H43.7499V100H56.2499V84.375H84.3749C84.9078 84.375 85.4318 84.2387 85.8972 83.9791C86.3626 83.7195 86.7539 83.3452 87.0338 82.8917C87.3138 82.4383 87.4731 81.9208 87.4967 81.3884C87.5203 80.856 87.4074 80.3264 87.1686 79.85L76.9374 59.375H78.1311C78.689 59.375 79.2366 59.2257 79.7173 58.9426C80.1979 58.6594 80.594 58.2528 80.8644 57.7649C81.1348 57.277 81.2697 56.7256 81.2551 56.168C81.2404 55.6104 81.0768 55.0668 80.7812 54.5938L68.1374 34.375H68.7499C69.3152 34.3747 69.8698 34.2211 70.3546 33.9306C70.8395 33.64 71.2365 33.2234 71.5033 32.725C71.7701 32.2267 71.8967 31.6653 71.8697 31.1007C71.8427 30.5361 71.6631 29.9894 71.3499 29.5188L52.5999 1.39377ZM40.2311 29.7375C39.9612 29.2495 39.5656 28.8426 39.0853 28.559C38.605 28.2755 38.0576 28.1256 37.4999 28.125H37.0874L49.9999 8.75627L62.9124 28.125H62.4999C61.9421 28.125 61.3944 28.2743 60.9138 28.5575C60.4331 28.8406 60.037 29.2472 59.7666 29.7351C59.4962 30.223 59.3613 30.7744 59.376 31.332C59.3906 31.8897 59.5542 32.4332 59.8499 32.9063L72.4874 53.125H71.8749C71.342 53.125 70.818 53.2613 70.3526 53.5209C69.8872 53.7806 69.4959 54.1549 69.216 54.6083C68.936 55.0618 68.7767 55.5793 68.7531 56.1116C68.7295 56.644 68.8424 57.1736 69.0812 57.65L79.3124 78.125H20.6811L30.9186 57.65C31.1574 57.1736 31.2703 56.644 31.2467 56.1116C31.2231 55.5793 31.0638 55.0618 30.7838 54.6083C30.5039 54.1549 30.1126 53.7806 29.6472 53.5209C29.1818 53.2613 28.6578 53.125 28.1249 53.125H27.5124L40.1499 32.9063C40.4448 32.4333 40.6078 31.8901 40.6221 31.333C40.6364 30.7758 40.5014 30.225 40.2311 29.7375Z" fill="black"/>
</g>
<defs>
<clipPath id="clip0_212_312">
<rect width="100" height="100" fill="white"/>
</clipPath>
</defs>
</svg>
