<svg width="40" height="40" viewBox="0 0 40 40" fill="none" xmlns="http://www.w3.org/2000/svg">
<path d="M33.2331 33.58L25.8128 26.1565C28.0376 23.2573 29.0763 19.6203 28.7182 15.9833C28.3601 12.3464 26.632 8.98179 23.8844 6.57213C21.1368 4.16248 17.5755 2.88817 13.9229 3.00771C10.2703 3.12725 6.79999 4.63169 4.21584 7.21584C1.63169 9.79999 0.12725 13.2703 0.00770964 16.9229C-0.111831 20.5755 1.16248 24.1368 3.57213 26.8844C5.98179 29.632 9.34635 31.3601 12.9833 31.7182C16.6203 32.0763 20.2573 31.0376 23.1565 28.8128L30.5831 36.2409C30.7575 36.4153 30.9646 36.5537 31.1924 36.6481C31.4203 36.7424 31.6646 36.791 31.9112 36.791C32.1579 36.791 32.4021 36.7424 32.63 36.6481C32.8579 36.5537 33.0649 36.4153 33.2393 36.2409C33.4137 36.0665 33.5521 35.8594 33.6465 35.6315C33.7409 35.4037 33.7895 35.1594 33.7895 34.9128C33.7895 34.6661 33.7409 34.4219 33.6465 34.194C33.5521 33.9661 33.4137 33.7591 33.2393 33.5846L33.2331 33.58ZM3.78152 17.4065C3.78152 15.3051 4.40467 13.2509 5.57216 11.5036C6.73965 9.75632 8.39905 8.39449 10.3405 7.5903C12.282 6.78612 14.4183 6.57571 16.4794 6.98568C18.5404 7.39565 20.4336 8.40758 21.9195 9.89352C23.4055 11.3794 24.4174 13.2726 24.8274 15.3337C25.2373 17.3947 25.0269 19.5311 24.2227 21.4725C23.4186 23.414 22.0567 25.0734 20.3095 26.2409C18.5622 27.4084 16.508 28.0315 14.4065 28.0315C11.5895 28.0286 8.88866 26.9083 6.89671 24.9163C4.90477 22.9244 3.78442 20.2236 3.78152 17.4065Z" fill="black" fill-opacity="0.4"/>
</svg>
