<svg width="100" height="100" viewBox="0 0 100 100" fill="none" xmlns="http://www.w3.org/2000/svg">
<g clip-path="url(#clip0_299_8)">
<path d="M99.7748 4.28751C100.002 3.71961 100.058 3.09748 99.9348 2.49826C99.8119 1.89903 99.5158 1.34905 99.0833 0.916513C98.6508 0.483973 98.1008 0.187888 97.5016 0.0649667C96.9023 -0.0579549 96.2802 -0.00230801 95.7123 0.225009L4.79355 36.5938H4.7873L1.9623 37.7188C1.42724 37.9322 0.961588 38.2894 0.616776 38.7508C0.271964 39.2123 0.0614157 39.7601 0.00838731 40.3337C-0.0446411 40.9073 0.0619147 41.4844 0.316284 42.0013C0.570654 42.5181 0.962938 42.9546 1.4498 43.2625L4.0123 44.8875L4.01855 44.9L35.2373 64.7625L45.1748 80.375C49.9998 87.5 49.9998 81.25 49.9998 78.125C49.9991 74.1537 50.8394 70.2272 52.4654 66.604C54.0914 62.9809 56.4664 59.7431 59.4339 57.1039C62.4013 54.4647 65.8941 52.4838 69.6823 51.2917C73.4705 50.0996 77.4682 49.7233 81.4123 50.1875L99.7748 4.28751ZM88.3185 16.1L41.4811 62.9375L40.1373 60.825C39.8911 60.4374 39.5625 60.1087 39.1748 59.8625L37.0623 58.5188L83.8998 11.6813L91.2623 8.73751L88.3185 16.1Z" fill="#084CAF"/>
<path d="M100 78.125C100 83.9266 97.6953 89.4906 93.593 93.593C89.4906 97.6953 83.9266 100 78.125 100C72.3234 100 66.7594 97.6953 62.657 93.593C58.5547 89.4906 56.25 83.9266 56.25 78.125C56.25 72.3234 58.5547 66.7594 62.657 62.657C66.7594 58.5547 72.3234 56.25 78.125 56.25C83.9266 56.25 89.4906 58.5547 93.593 62.657C97.6953 66.7594 100 72.3234 100 78.125ZM87.5437 67.6313C87.1917 67.4202 86.8015 67.2807 86.3954 67.2205C85.9894 67.1603 85.5755 67.1807 85.1773 67.2806C84.7792 67.3804 84.4046 67.5577 84.075 67.8023C83.7453 68.0469 83.4671 68.3541 83.2563 68.7063L75.9438 80.8937L72.525 77.475C71.9382 76.8882 71.1423 76.5586 70.3125 76.5586C69.4827 76.5586 68.6868 76.8882 68.1 77.475C67.5132 78.0618 67.1836 78.8577 67.1836 79.6875C67.1836 80.5173 67.5132 81.3132 68.1 81.9L72.9375 86.7312C73.441 87.2357 74.0529 87.6188 74.7268 87.8512C75.4006 88.0836 76.1185 88.1593 76.826 88.0725C77.5334 87.9858 78.2118 87.7388 78.8095 87.3504C79.4071 86.962 79.9083 86.4425 80.275 85.8312L88.6187 71.9187C88.8298 71.5667 88.9693 71.1765 89.0295 70.7704C89.0897 70.3644 89.0693 69.9505 88.9694 69.5523C88.8696 69.1542 88.6923 68.7796 88.4477 68.45C88.2031 68.1203 87.8959 67.8421 87.5437 67.6313Z" fill="#084CAF"/>
</g>
<defs>
<clipPath id="clip0_299_8">
<rect width="100" height="100" fill="white"/>
</clipPath>
</defs>
</svg>
