<svg width="100" height="100" viewBox="0 0 100 100" fill="none" xmlns="http://www.w3.org/2000/svg">
<g clip-path="url(#clip0_300_11)">
<path d="M50 100C63.2608 100 75.9785 94.7322 85.3553 85.3553C94.7322 75.9785 100 63.2608 100 50C100 36.7392 94.7322 24.0215 85.3553 14.6447C75.9785 5.26784 63.2608 0 50 0C36.7392 0 24.0215 5.26784 14.6447 14.6447C5.26784 24.0215 0 36.7392 0 50C0 63.2608 5.26784 75.9785 14.6447 85.3553C24.0215 94.7322 36.7392 100 50 100ZM43.75 40.625C43.75 45.8 40.95 50 37.5 50C34.05 50 31.25 45.8 31.25 40.625C31.25 35.45 34.05 31.25 37.5 31.25C40.95 31.25 43.75 35.45 43.75 40.625ZM26.7812 59.7938C27.499 59.3794 28.352 59.2671 29.1525 59.4816C29.953 59.6961 30.6356 60.2198 31.05 60.9375C32.9704 64.2638 35.7328 67.0257 39.0593 68.9457C42.3858 70.8657 46.1592 71.876 50 71.875C53.8408 71.876 57.6142 70.8657 60.9407 68.9457C64.2672 67.0257 67.0296 64.2638 68.95 60.9375C69.1537 60.5792 69.4262 60.2648 69.752 60.0123C70.0777 59.7598 70.4501 59.5742 70.8478 59.4662C71.2456 59.3582 71.6607 59.33 72.0694 59.3831C72.4781 59.4362 72.8722 59.5697 73.2292 59.7757C73.5861 59.9818 73.8987 60.2564 74.149 60.5838C74.3994 60.9112 74.5825 61.2849 74.6878 61.6833C74.7931 62.0817 74.8186 62.4971 74.7628 62.9054C74.707 63.3137 74.5709 63.707 74.3625 64.0625C71.8935 68.3389 68.3422 71.8898 64.0656 74.3584C59.789 76.8269 54.9379 78.126 50 78.125C45.0621 78.126 40.211 76.8269 35.9344 74.3584C31.6578 71.8898 28.1065 68.3389 25.6375 64.0625C25.2231 63.3448 25.1108 62.4918 25.3253 61.6913C25.5398 60.8907 26.0635 60.2082 26.7812 59.7938ZM62.5 50C59.05 50 56.25 45.8 56.25 40.625C56.25 35.45 59.05 31.25 62.5 31.25C65.95 31.25 68.75 35.45 68.75 40.625C68.75 45.8 65.95 50 62.5 50Z" fill="#084CAF"/>
</g>
<defs>
<clipPath id="clip0_300_11">
<rect width="100" height="100" fill="white"/>
</clipPath>
</defs>
</svg>
