<svg width="557" height="345" viewBox="0 0 557 345" fill="none" xmlns="http://www.w3.org/2000/svg">
<path d="M433.662 0C454.959 28.3356 463.86 69.8882 456.424 113.235C491.991 100.317 526.813 94.8136 556.47 96.2188V266.905C542.794 275.182 527.807 282.714 511.772 289.184C501.404 293.367 491.062 296.92 480.854 299.854C489.965 314.993 496.753 330.235 501.22 345H268.564C265.815 339.776 263.341 334.557 261.143 329.366C256.872 334.892 252.356 340.107 247.642 345H62.9576C45.618 308.179 50.293 256.762 79.0182 210.298C19.6777 172.4 -12.5073 120.248 4.55624 82.0615C25.4682 35.263 112.428 27.1623 198.785 63.9678C212.655 69.8795 225.666 76.5913 237.65 83.8857C238.837 78.9221 240.237 73.948 241.863 68.9814C250.899 41.3752 265.553 17.8141 283.318 0H433.662Z" fill="#E5F3FF"/>
</svg>
