<svg width="342" height="253" viewBox="0 0 342 253" fill="none" xmlns="http://www.w3.org/2000/svg">
<path d="M341.777 120.8C341.5 121.301 341.223 121.807 340.941 122.314C330.001 142.046 314.686 167.421 304.909 181.835C300.224 188.743 295.799 194.785 291.137 199.522C285.246 205.508 279.498 208.926 273.568 211.306C260.708 216.466 243.851 222.306 204.094 223.548C189.707 223.997 170.66 224.219 152.179 224.439C133.45 224.663 115.302 224.884 102.012 225.321C87.9576 225.783 80.7089 226.198 76.4121 226.787C76.3602 226.794 76.3092 226.802 76.2598 226.809C72.444 229.762 69.7108 232.185 67.748 234.512C65.6113 237.044 65.5458 238.118 65.5371 238.195C65.0693 242.257 64.9034 246.939 65.0283 252.256H0.0273374C-0.0933523 244.772 0.179688 237.568 0.963861 230.759C4.6426 198.816 29.9127 180.258 39.917 172.794L40.7754 172.168C49.663 165.829 59.0954 163.552 67.5879 162.389C75.8123 161.262 86.5181 160.796 99.876 160.356C113.998 159.892 132.918 159.664 151.403 159.443C170.135 159.22 188.45 159.004 202.064 158.579C218.695 158.06 228.99 156.659 235.594 155.276C240.16 154.32 243.308 153.309 246.22 152.213C246.281 152.133 246.348 152.052 246.414 151.966C247.535 150.502 249.049 148.397 251.117 145.348C259.48 133.018 273.771 109.414 284.096 90.7939C300.319 61.5356 313.139 35.282 327.779 15.8887C332.059 10.2196 336.777 4.93297 341.777 0V120.8Z" fill="#D9D9D9"/>
</svg>
