<svg width="628" height="455" viewBox="0 0 628 455" fill="none" xmlns="http://www.w3.org/2000/svg">
<path d="M626.059 0C635.63 35.6163 576.707 97.0951 490.092 140.48C488.655 141.201 487.218 141.911 485.782 142.612C573.357 179.456 631.372 236.962 616.03 272.487C600.369 308.746 514.219 308.376 423.609 271.66C406.182 264.599 389.859 256.707 374.972 248.308C374.408 258.438 373.491 268.828 372.197 279.401C359.985 379.112 319.017 457.364 280.691 454.181C242.364 450.997 221.193 367.584 233.405 267.872C234.733 257.021 236.403 246.423 238.372 236.157C220.93 240.029 202.244 242.979 182.773 244.776C83.7698 253.917 1.95526 229.86 0.0344238 191.044C-1.88577 152.228 76.815 113.351 175.818 104.211C204.416 101.571 231.58 101.701 255.798 104.156C248.837 86.3165 242.727 66.679 237.85 45.7871C234.205 30.1737 231.473 14.8172 229.612 0H372.102C372.772 2.65618 373.425 5.33398 374.055 8.0332C376.926 20.3313 379.23 32.4703 380.99 44.3115C396.532 33.8531 413.725 23.7902 432.175 14.5488C442.902 9.17594 453.57 4.32327 464.07 0H626.059Z" fill="#2464BC"/>
</svg>
