<svg width="219" height="70" viewBox="0 0 219 70" fill="none" xmlns="http://www.w3.org/2000/svg">
<path d="M0.372666 0.307827C0.472081 0.447746 4.42383 4.08566 9.14605 8.36721C13.8931 12.6208 18.5656 16.8184 19.5101 17.7139L21.2498 19.3089H31.0174H40.7601L40.7104 9.71044L40.6358 0.139923L35.2425 0.0559711L29.8244 3.8147e-06V6.43632C29.8244 9.9623 29.7498 12.8726 29.6753 12.8726C29.4765 12.8726 26.9911 10.522 20.6782 4.39349L16.13 3.8147e-06H8.17676C2.60951 3.8147e-06 0.27325 0.0839558 0.372666 0.307827Z" fill="#084CAF"/>
<path d="M44.488 9.65447V19.3089H54.0816H63.6752L71.7775 11.8372C76.2512 7.72358 80.7994 3.55397 81.893 2.54655C82.9865 1.56711 84.0553 0.587667 84.2541 0.363794C84.5523 0.0559711 83.2848 3.8147e-06 76.6488 3.8147e-06H68.6956L62.01 6.4643L55.2994 12.9566L55.1752 6.54825L55.0509 0.139923L49.7819 0.0559711L44.488 3.8147e-06V9.65447Z" fill="#084CAF"/>
<path d="M20.4546 21.6316C19.7338 22.2752 19.1622 22.8909 19.1622 23.0308C19.1374 23.1427 23.9838 23.1987 29.899 23.1707L40.6359 23.0868V21.8275V20.5682L31.1914 20.5123L21.747 20.4283L20.4546 21.6316Z" fill="#084CAF"/>
<path d="M44.662 20.6242C44.5626 20.7082 44.488 21.3518 44.488 22.0234V23.2267H55.1006H65.6883L65.2161 22.639C64.9676 22.3032 64.2965 21.6596 63.7746 21.2398L62.8053 20.4283H53.8082C48.8623 20.4283 44.7366 20.5123 44.662 20.6242Z" fill="#084CAF"/>
<path d="M16.4781 25.6053L15.2852 26.8366H42.5001L69.7149 26.8646L68.4723 25.6053L67.2296 24.3741L55.5731 24.3461H43.8919L43.2208 25.2416L42.5498 26.165L41.7047 25.2416L40.8597 24.3461H29.2778H17.696L16.4781 25.6053Z" fill="#084CAF"/>
<path d="M11.9049 29.719L10.5876 30.9223L14.8625 31.0062C17.2236 31.0342 21.0511 31.0342 23.3873 31.0062L27.6125 30.9223L26.7178 29.719L25.7982 28.5437H19.535H13.247L11.9049 29.719Z" fill="#084CAF"/>
<path d="M29.5759 28.7675C29.5759 28.8795 29.9984 29.4671 30.5204 30.0268L31.4648 31.0622H42.3756L53.3113 31.0342L54.38 29.9149C54.9516 29.2992 55.4239 28.7395 55.4239 28.6836C55.4239 28.5996 49.6081 28.5436 42.4999 28.5436C35.3917 28.5436 29.5759 28.6556 29.5759 28.7675Z" fill="#084CAF"/>
<path d="M58.1575 29.8029L57.064 31.0622H65.6137L74.1882 31.0342L72.9952 29.8029L71.7774 28.5436H65.5143H59.2511L58.1575 29.8029Z" fill="#084CAF"/>
<path d="M7.25729 34.1964C6.56139 34.868 6.06431 35.4557 6.11402 35.5396C6.28799 35.7355 31.3158 35.7355 31.3158 35.5396C31.3158 35.4557 30.8684 34.84 30.3216 34.1964L29.3026 33.0211H18.9137H8.49998L7.25729 34.1964Z" fill="#084CAF"/>
<path d="M33.5527 33.245C33.5527 33.3569 34.0001 33.9726 34.5469 34.5602L35.5659 35.6796L42.5498 35.6236L49.5337 35.5676L50.4782 34.5322C51.0249 33.9446 51.4475 33.3569 51.4475 33.245C51.4475 33.133 47.4211 33.0211 42.5001 33.0211C37.579 33.0211 33.5527 33.133 33.5527 33.245Z" fill="#084CAF"/>
<path d="M54.405 34.2524L53.2617 35.4837L55.5234 35.6796C58.3567 35.9034 78.7866 35.7355 78.7866 35.4837C78.7866 35.3997 78.2646 34.7841 77.6433 34.1684L76.4752 33.0211H66.0117H55.5483L54.405 34.2524Z" fill="#084CAF"/>
<path d="M1.39181 39.9052C0.621345 40.6327 0 41.3044 0 41.4443C0 41.5842 3.40497 41.6961 7.5804 41.6961H15.1857L16.4035 40.4089C17.0994 39.6813 17.6462 38.9817 17.6462 38.8697C17.6462 38.7298 14.3158 38.6179 10.2149 38.6179H2.78362L1.39181 39.9052Z" fill="#084CAF"/>
<path d="M23.6108 38.8697C23.6108 38.9817 24.1328 39.6533 24.8038 40.3249L25.9719 41.5562L31.5392 41.4723L37.1064 41.3883L35.9135 40.0171L34.6956 38.6179H29.1532C26.0962 38.6179 23.6108 38.7298 23.6108 38.8697Z" fill="#084CAF"/>
<path d="M38.5232 38.8697C38.5232 39.0097 39.0451 39.6533 39.6665 40.2689C40.7849 41.3603 40.9092 41.4163 42.4749 41.4163C44.0904 41.4163 44.1401 41.3883 45.4823 40.0171L46.8492 38.6459L42.6986 38.6179C40.3375 38.6179 38.5232 38.7298 38.5232 38.8697Z" fill="#084CAF"/>
<path d="M49.3348 40.0171L48.1169 41.4163H53.5848H59.0526L60.2704 40.0171L61.4883 38.6179H56.0204H50.5526L49.3348 40.0171Z" fill="#084CAF"/>
<path d="M68.6462 40.157L70.038 41.6961H77.519C81.6447 41.6961 85 41.6122 85 41.4723C85 41.3603 84.3289 40.6887 83.5336 39.9331L82.0672 38.6179H74.6608H67.2295L68.6462 40.157Z" fill="#084CAF"/>
<path d="M49.8818 44.9982L44.2151 45.0542L45.6318 46.7333L47.0484 48.4123H52.7399C55.8467 48.4123 58.4066 48.3004 58.4066 48.1884C58.4066 48.0765 57.7604 47.2929 56.9899 46.4534L55.5484 44.9143L49.8818 44.9982Z" fill="#084CAF"/>
<path d="M27.8861 46.5374C27.1654 47.3489 26.5938 48.1045 26.5938 48.2164C26.5938 48.3283 29.0791 48.4123 32.1361 48.4123H37.6785L39.1449 46.7333L40.6113 45.0542H34.8949H29.1785L27.8861 46.5374Z" fill="#084CAF"/>
<path d="M41.804 47.6287C41.3069 48.1884 41.456 48.4123 42.3756 48.4123C42.8479 48.4123 43.2455 48.3004 43.2455 48.1884C43.2455 47.8526 42.6987 47.2929 42.3756 47.2929C42.2265 47.2929 41.978 47.4329 41.804 47.6287Z" fill="#084CAF"/>
<path d="M22.0453 53.3934C21.2749 54.2889 20.6287 55.1004 20.6287 55.2124C20.6287 55.3243 23.1637 55.4083 26.2705 55.4083H31.9123L33.3538 53.8132C34.1491 52.9177 34.7953 52.1062 34.7953 51.9942C34.7953 51.8823 32.2354 51.7704 29.1287 51.7704H23.462L22.0453 53.3934Z" fill="#084CAF"/>
<path d="M36.9578 53.5893L35.4915 55.4083H42.376C50.18 55.4083 49.6581 55.6601 47.4958 53.0856L46.3774 51.7703H42.376L38.3993 51.7983L36.9578 53.5893Z" fill="#084CAF"/>
<path d="M49.9563 51.9662C49.9563 52.0782 50.6025 52.8897 51.373 53.7852L52.7896 55.4083H58.5806C61.7618 55.4083 64.3715 55.3243 64.3715 55.2124C64.3715 55.1004 63.7253 54.2889 62.9548 53.3934L61.5382 51.7704H55.7472C52.5659 51.7704 49.9563 51.8543 49.9563 51.9662Z" fill="#084CAF"/>
<path d="M22.244 59.8297L16.5276 59.8857L14.9867 61.6207C14.1168 62.6001 13.4209 63.4677 13.4209 63.5796C13.4209 63.6915 15.9808 63.7755 19.0876 63.7755H24.7791L26.4691 61.8446C27.4136 60.7812 28.1343 59.8577 28.0598 59.8297C28.0101 59.7738 25.4004 59.7738 22.244 59.8297Z" fill="#084CAF"/>
<path d="M41.506 59.8018L31.9373 59.8857L30.3964 61.6207C29.5265 62.5722 28.8306 63.4677 28.8306 63.5796C28.8306 63.6915 34.9197 63.8035 42.3759 63.8035C49.832 63.8035 55.9212 63.7195 55.9212 63.5796C55.9212 63.4677 55.2253 62.6001 54.3803 61.6487C53.1624 60.3055 52.6156 59.9137 51.9446 59.8297C51.4724 59.7738 46.775 59.7738 41.506 59.8018Z" fill="#084CAF"/>
<path d="M61.8114 59.8857L56.6418 60.0256L58.2822 61.8446L59.9225 63.6636L65.7383 63.7475C68.9445 63.8035 71.579 63.7475 71.579 63.6076C71.579 63.4677 70.8334 62.5162 69.8889 61.4808C68.6214 60.0816 68.0497 59.6339 67.6024 59.6618C67.2544 59.6898 64.6448 59.8018 61.8114 59.8857Z" fill="#084CAF"/>
<path d="M8.54958 69.5404C8.12707 69.9042 8.74841 69.9322 14.0671 69.9602C18.9385 69.9602 20.1314 69.8763 20.5291 69.5404C20.9516 69.1767 20.3303 69.1487 15.0116 69.1207C10.1402 69.1207 8.94724 69.2046 8.54958 69.5404Z" fill="#084CAF"/>
<path d="M24.2819 69.3166C23.7848 69.8763 24.605 69.9602 29.9237 69.9602C35.6152 69.9602 36.5348 69.8763 36.5348 69.3725C36.5348 69.0927 24.5304 69.0088 24.2819 69.3166Z" fill="#084CAF"/>
<path d="M49.0615 69.5402C49.7325 70.0999 60.9913 70.1838 60.8422 69.5961C60.7428 69.3443 59.2515 69.2324 54.6536 69.2044C49.2603 69.1484 48.639 69.1764 49.0615 69.5402Z" fill="#084CAF"/>
<path d="M64.471 69.5404C64.8686 69.8763 66.0616 69.9602 70.7838 69.9602C75.9286 69.9602 76.5748 69.9042 76.3014 69.5404C76.0528 69.1767 75.0338 69.1207 69.9885 69.1207C64.6698 69.1487 64.0485 69.1767 64.471 69.5404Z" fill="#084CAF"/>
<path d="M101.128 20.128L93.448 9.152H98.44L105.832 20.224V9.152H110.344V20.224L117.736 9.152H122.728L115.048 20.128L123.176 32H117.992L110.344 20.416V32H105.832V20.416L98.184 32H93L101.128 20.128ZM144.692 32H139.188L130.9 20.416V32H126.068V9.152H130.9V20.224L139.092 9.152H144.244L135.924 20.128L144.692 32ZM166.032 32H160.496L155.184 23.36L149.872 32H144.688L152.272 20.224L145.168 9.152H150.512L155.44 17.376L160.272 9.152H165.488L158.32 20.48L166.032 32ZM114.504 62H109L100.712 50.416V62H95.88V39.152H100.712V50.224L108.904 39.152H114.056L105.736 50.128L114.504 62ZM132.644 62H127.876V48.112H123.492C123.279 50.672 123.012 52.8587 122.692 54.672C122.393 56.464 122.009 57.9253 121.54 59.056C121.092 60.1867 120.516 61.0187 119.812 61.552C119.108 62.064 118.244 62.32 117.22 62.32C116.665 62.32 116.164 62.2773 115.716 62.192C115.268 62.1067 114.863 61.9787 114.5 61.808V58C114.735 58.0853 114.98 58.16 115.236 58.224C115.492 58.288 115.759 58.32 116.036 58.32C116.335 58.32 116.612 58.2027 116.868 57.968C117.145 57.7333 117.401 57.3173 117.636 56.72C117.892 56.1227 118.127 55.3013 118.34 54.256C118.553 53.2107 118.745 51.8987 118.916 50.32C119.108 48.72 119.279 46.7893 119.428 44.528H132.644V62ZM142.229 51.44C142.229 51.8027 142.208 52.2507 142.165 52.784C142.144 53.3173 142.112 53.8613 142.069 54.416C142.048 54.9707 142.016 55.4613 141.973 55.888C141.93 56.3147 141.898 56.6133 141.877 56.784L149.941 44.528H155.669V62H151.061V55.024C151.061 54.448 151.082 53.8187 151.125 53.136C151.168 52.432 151.21 51.7813 151.253 51.184C151.317 50.5653 151.36 50.096 151.381 49.776L143.349 62H137.621V44.528H142.229V51.44ZM164.844 50.928C164.844 51.6747 165.026 52.24 165.388 52.624C165.772 53.008 166.295 53.2 166.956 53.2C167.874 53.2 168.727 53.104 169.516 52.912C170.306 52.6987 171.095 52.4213 171.884 52.08V44.528H176.652V62H171.884V55.056C171.138 55.4613 170.284 55.8347 169.324 56.176C168.364 56.496 167.276 56.656 166.06 56.656C164.247 56.656 162.796 56.1867 161.708 55.248C160.62 54.3093 160.076 52.9013 160.076 51.024V44.528H164.844V50.928ZM188.852 44.208C190.474 44.208 191.86 44.5173 193.012 45.136C194.186 45.7547 195.092 46.6507 195.732 47.824C196.372 48.9973 196.692 50.4373 196.692 52.144V54.448H185.428C185.471 55.792 185.866 56.848 186.612 57.616C187.38 58.384 188.436 58.768 189.78 58.768C190.911 58.768 191.935 58.6613 192.852 58.448C193.77 58.2133 194.719 57.8613 195.7 57.392V61.072C194.847 61.4987 193.94 61.808 192.98 62C192.042 62.2133 190.9 62.32 189.556 62.32C187.807 62.32 186.26 62 184.916 61.36C183.572 60.6987 182.516 59.7067 181.748 58.384C180.98 57.0613 180.596 55.3973 180.596 53.392C180.596 51.344 180.938 49.648 181.62 48.304C182.324 46.9387 183.295 45.9147 184.532 45.232C185.77 44.5493 187.21 44.208 188.852 44.208ZM188.884 47.6C187.967 47.6 187.199 47.8987 186.58 48.496C185.983 49.0933 185.631 50.0213 185.524 51.28H192.212C192.212 50.576 192.084 49.9467 191.828 49.392C191.594 48.8373 191.231 48.4 190.74 48.08C190.25 47.76 189.631 47.6 188.884 47.6ZM216.047 49.104C216.047 50.0427 215.748 50.8427 215.151 51.504C214.575 52.1653 213.711 52.592 212.559 52.784V52.912C213.775 53.0613 214.745 53.4773 215.471 54.16C216.217 54.8427 216.591 55.7173 216.591 56.784C216.591 57.5307 216.441 58.224 216.142 58.864C215.865 59.504 215.417 60.0587 214.799 60.528C214.18 60.9973 213.38 61.36 212.399 61.616C211.439 61.872 210.265 62 208.879 62H200.559V44.528H208.879C210.244 44.528 211.46 44.6773 212.527 44.976C213.615 45.2533 214.468 45.7227 215.087 46.384C215.727 47.0453 216.047 47.952 216.047 49.104ZM211.663 56.528C211.663 55.8453 211.396 55.3547 210.863 55.056C210.329 54.736 209.529 54.576 208.463 54.576H205.327V58.704H208.559C209.455 58.704 210.191 58.544 210.767 58.224C211.364 57.8827 211.663 57.3173 211.663 56.528ZM211.215 49.488C211.215 48.9333 211.001 48.528 210.575 48.272C210.148 48.016 209.519 47.888 208.687 47.888H205.327V51.344H208.143C209.145 51.344 209.903 51.2053 210.415 50.928C210.948 50.6293 211.215 50.1493 211.215 49.488Z" fill="#151B31"/>
</svg>
